
<svg version="1.0" xmlns="http://www.w3.org/2000/svg"
 width="16" height="16" viewBox="0 0 24 24"
 preserveAspectRatio="xMidYMid meet">

<g transform="translate(0.000000,16) scale(0.100000,-0.100000)"
fill="#000000" stroke="none">
<path d="M2375 3904 c-317 -32 -597 -104 -899 -231 -459 -193 -933 -515 -1324
-900 -148 -145 -166 -176 -143 -255 21 -75 336 -368 626 -584 514 -382 1046
-617 1585 -700 85 -13 174 -18 340 -18 238 0 347 11 562 59 206 46 521 161
733 267 378 190 791 488 1113 805 148 145 166 176 143 256 -21 74 -336 367
-626 583 -361 268 -727 462 -1111 587 -279 91 -481 126 -764 131 -107 2 -213
2 -235 0z m328 -305 c415 -62 750 -354 865 -754 160 -552 -165 -1132 -723
-1293 -552 -160 -1132 165 -1293 723 -190 657 309 1325 996 1334 46 1 116 -4
155 -10z"/>
<path d="M2465 3304 c-104 -21 -137 -30 -190 -52 -179 -76 -331 -227 -407
-407 -41 -97 -53 -162 -53 -285 0 -123 12 -188 53 -285 93 -218 282 -380 522
-447 26 -7 101 -12 175 -12 119 0 138 3 220 31 130 45 208 93 305 192 96 97
155 197 189 320 l20 73 -32 -6 c-169 -35 -307 3 -422 119 -176 175 -178 448
-5 627 28 29 47 55 43 58 -20 17 -115 50 -185 64 -71 15 -184 19 -233 10z"/>
</g>
</svg>
