<svg version="1.0" xmlns="http://www.w3.org/2000/svg" width="16" height="16" viewBox="0 0 24 24"><path d="M248.4 13.9c-1.7 1-4 3.2-5.1 4.8-1.1 1.5-15.8 30.9-32.7 65.2-16.9 34.3-32 64.3-33.6 66.7-1.6 2.3-4.7 5.6-6.9 7.3-9 7.1-9.4 7.2-86.9 18.5-53.4 7.7-73.2 11-75.5 12.3C4.1 190.8 0 198 0 202.3c0 1.5.9 4.4 1.9 6.5 1.1 2.1 23.8 25.1 54 54.5 29.1 28.4 53.1 52.6 54.5 55 2.9 4.9 5.6 14.5 5.6 19.9 0 2-5.4 35.2-12 73.6-6.6 38.5-12 71.4-12 73.1 0 5 3.3 10.3 8 13 7.8 4.4 7.2 4.6 76.5-31.8 34.6-18.3 65-33.9 67.5-34.7 5.8-2.1 18.2-2.1 24.1 0 2.5.9 32.9 16.5 67.5 34.7 69.2 36.5 68.5 36.2 76.4 31.8 4.7-2.7 8-8 8-13 0-1.7-5.4-34.6-12-73.1-6.6-38.4-12-71.6-12-73.6 0-5.4 2.7-15 5.6-19.9 1.4-2.4 25.4-26.6 54.5-55 30.2-29.4 52.9-52.4 54-54.5 1-2.1 1.9-5 1.9-6.5 0-4.3-4.1-11.5-7.7-13.6-2.3-1.3-22-4.5-75.5-12.3-77.5-11.3-78-11.4-86.9-18.5-2.2-1.7-5.2-5-6.8-7.3-1.6-2.3-16.7-32.3-33.7-66.6-16.9-34.4-31.8-64-33.1-65.8-1.3-1.7-3.7-3.9-5.3-4.7-4-2.1-10.9-1.9-14.6.4z"/></svg>