
<svg version="1.0" xmlns="http://www.w3.org/2000/svg"
 width="16" height="16" viewBox="0 0 24 24"
 preserveAspectRatio="xMidYMid meet">

<g transform="translate(0.000000,512.000000) scale(0.100000,-0.100000)"
fill="#000000" stroke="none">
<path d="M2484 4981 c-17 -10 -40 -32 -51 -48 -11 -15 -158 -309 -327 -652
-169 -343 -320 -643 -336 -667 -16 -23 -47 -56 -69 -73 -90 -71 -94 -72 -869
-185 -534 -77 -732 -110 -755 -123 -36 -21 -77 -93 -77 -136 0 -15 9 -44 19
-65 11 -21 238 -251 540 -545 291 -284 531 -526 545 -550 29 -49 56 -145 56
-199 0 -20 -54 -352 -120 -736 -66 -385 -120 -714 -120 -731 0 -50 33 -103 80
-130 78 -44 72 -46 765 318 346 183 650 339 675 347 58 21 182 21 241 0 25 -9
329 -165 675 -347 692 -365 685 -362 764 -318 47 27 80 80 80 130 0 17 -54
346 -120 731 -66 384 -120 716 -120 736 0 54 27 150 56 199 14 24 254 266 545
550 302 294 529 524 540 545 10 21 19 50 19 65 0 43 -41 115 -77 136 -23 13
-220 45 -755 123 -775 113 -780 114 -869 185 -22 17 -52 50 -68 73 -16 23
-167 323 -337 666 -169 344 -318 640 -331 658 -13 17 -37 39 -53 47 -40 21
-109 19 -146 -4z"/>
</g>
</svg>
